REM DIRINDEX 1\2\6,1\2\7,1\2\8,1\2\9,1\3\10,1\3\11,1\4\12,1\4\13,1\4\14,1\5\15,1\5\16,1\5\17
REM DIRNAME cjc029,folder01,folder02,folder03,folder04,folder05,folder06,folder07,folder08,folder09,folder10,folder11,folder12,folder13,folder14,folder15,folder16
TITLE ""
FILE "1400_3_sec07_0667_0683.mp3" MP3
  TRACK 01 AUDIO
    TITLE "0:"
    INDEX 01 00:00:00
  TRACK 02 AUDIO
    TITLE "17:cjc029_5767"
    INDEX 01 00:00:15
  TRACK 03 AUDIO
    TITLE "0:"
    INDEX 01 00:01:36
  TRACK 04 AUDIO
    TITLE "16:cjc029_5768"
    INDEX 01 00:01:42
  TRACK 05 AUDIO
    TITLE "0:"
    INDEX 01 00:02:57
  TRACK 06 AUDIO
    TITLE "17:cjc029_5769"
    INDEX 01 00:03:43
  TRACK 07 AUDIO
    TITLE "0:"
    INDEX 01 00:04:68
  TRACK 08 AUDIO
    TITLE "16:cjc029_5770"
    INDEX 01 00:05:01
  TRACK 09 AUDIO
    TITLE "0:"
    INDEX 01 00:06:20
  TRACK 10 AUDIO
    TITLE "17:cjc029_5771"
    INDEX 01 00:07:05
  TRACK 11 AUDIO
    TITLE "0:"
    INDEX 01 00:08:09
  TRACK 12 AUDIO
    TITLE "16:cjc029_5772"
    INDEX 01 00:08:15
  TRACK 13 AUDIO
    TITLE "0:"
    INDEX 01 00:09:42
  TRACK 14 AUDIO
    TITLE "17:cjc029_5773"
    INDEX 01 00:10:27
  TRACK 15 AUDIO
    TITLE "0:"
    INDEX 01 00:11:39
  TRACK 16 AUDIO
    TITLE "16:cjc029_5774"
    INDEX 01 00:11:46
  TRACK 17 AUDIO
    TITLE "0:"
    INDEX 01 00:12:60
  TRACK 18 AUDIO
    TITLE "17:cjc029_5775"
    INDEX 01 00:13:43
  TRACK 19 AUDIO
    TITLE "0:"
    INDEX 01 00:17:21
  TRACK 20 AUDIO
    TITLE "16:cjc029_5776"
    INDEX 01 00:17:25
  TRACK 21 AUDIO
    TITLE "0:"
    INDEX 01 00:18:39
  TRACK 22 AUDIO
    TITLE "17:cjc029_5777"
    INDEX 01 00:19:22
  TRACK 23 AUDIO
    TITLE "0:"
    INDEX 01 00:20:24
  TRACK 24 AUDIO
    TITLE "16:cjc029_5778"
    INDEX 01 00:20:30
  TRACK 25 AUDIO
    TITLE "0:"
    INDEX 01 00:21:47
  TRACK 26 AUDIO
    TITLE "17:cjc029_5779"
    INDEX 01 00:22:34
  TRACK 27 AUDIO
    TITLE "0:"
    INDEX 01 00:23:24
  TRACK 28 AUDIO
    TITLE "16:cjc029_5780"
    INDEX 01 00:23:32
  TRACK 29 AUDIO
    TITLE "0:"
    INDEX 01 00:24:33
  TRACK 30 AUDIO
    TITLE "17:cjc029_5781"
    INDEX 01 00:25:21
  TRACK 31 AUDIO
    TITLE "0:"
    INDEX 01 00:26:32
  TRACK 32 AUDIO
    TITLE "16:cjc029_5782"
    INDEX 01 00:26:40
  TRACK 33 AUDIO
    TITLE "0:"
    INDEX 01 00:27:49
  TRACK 34 AUDIO
    TITLE "17:cjc029_5783"
    INDEX 01 00:28:31
  TRACK 35 AUDIO
    TITLE "0:"
    INDEX 01 00:31:12
  TRACK 36 AUDIO
    TITLE "16:cjc029_5784"
    INDEX 01 00:31:20
  TRACK 37 AUDIO
    TITLE "0:"
    INDEX 01 00:32:45
  TRACK 38 AUDIO
    TITLE "17:cjc029_5785"
    INDEX 01 00:33:30
  TRACK 39 AUDIO
    TITLE "0:"
    INDEX 01 00:34:36
  TRACK 40 AUDIO
    TITLE "16:cjc029_5786"
    INDEX 01 00:34:43
  TRACK 41 AUDIO
    TITLE "0:"
    INDEX 01 00:35:53
  TRACK 42 AUDIO
    TITLE "17:cjc029_5787"
    INDEX 01 00:36:38
  TRACK 43 AUDIO
    TITLE "0:"
    INDEX 01 00:40:15
  TRACK 44 AUDIO
    TITLE "16:cjc029_5788"
    INDEX 01 00:40:21
  TRACK 45 AUDIO
    TITLE "0:"
    INDEX 01 00:41:42
  TRACK 46 AUDIO
    TITLE "17:cjc029_5789"
    INDEX 01 00:42:25
  TRACK 47 AUDIO
    TITLE "0:"
    INDEX 01 00:43:46
  TRACK 48 AUDIO
    TITLE "16:cjc029_5790"
    INDEX 01 00:43:52
  TRACK 49 AUDIO
    TITLE "0:"
    INDEX 01 00:44:67
  TRACK 50 AUDIO
    TITLE "17:cjc029_5791"
    INDEX 01 00:45:51
  TRACK 51 AUDIO
    TITLE "0:"
    INDEX 01 00:46:74
  TRACK 52 AUDIO
    TITLE "16:cjc029_5792"
    INDEX 01 00:47:09
  TRACK 53 AUDIO
    TITLE "0:"
    INDEX 01 00:48:12
  TRACK 54 AUDIO
    TITLE "17:cjc029_5793"
    INDEX 01 00:48:69
  TRACK 55 AUDIO
    TITLE "0:"
    INDEX 01 00:52:02
  TRACK 56 AUDIO
    TITLE "16:cjc029_5794"
    INDEX 01 00:52:08
  TRACK 57 AUDIO
    TITLE "0:"
    INDEX 01 00:53:15
  TRACK 58 AUDIO
    TITLE "17:cjc029_5795"
    INDEX 01 00:53:74
  TRACK 59 AUDIO
    TITLE "0:"
    INDEX 01 00:57:01
  TRACK 60 AUDIO
    TITLE "16:cjc029_5796"
    INDEX 01 00:57:05
  TRACK 61 AUDIO
    TITLE "0:"
    INDEX 01 00:58:28
  TRACK 62 AUDIO
    TITLE "17:cjc029_5797"
    INDEX 01 00:59:14
  TRACK 63 AUDIO
    TITLE "0:"
    INDEX 01 01:00:33
  TRACK 64 AUDIO
    TITLE "16:cjc029_5798"
    INDEX 01 01:00:37
  TRACK 65 AUDIO
    TITLE "0:"
    INDEX 01 01:01:36
  TRACK 66 AUDIO
    TITLE "17:cjc029_5799"
    INDEX 01 01:02:20
  TRACK 67 AUDIO
    TITLE "0:"
    INDEX 01 01:03:35
  TRACK 68 AUDIO
    TITLE "16:cjc029_5800"
    INDEX 01 01:03:41
  TRACK 69 AUDIO
    TITLE "0:"
    INDEX 01 01:04:54
